<svg xmlns="http://www.w3.org/2000/svg" width="430" height="240" viewBox="0 0 430 240">
<rect width="100%" height="100%" rx="7" fill="#0D1117"/>
<text x="28" y="38" font-family="Arial, sans-serif" font-size="22" fill="#FF3B8D">Top Languages by Commit</text>
<circle cx="305" cy="132" r="48" fill="none" stroke="#3178C6" stroke-width="22" stroke-dasharray="140.41100911418013 161.18188563044" stroke-dashoffset="0" transform="rotate(-90 305 132)"/>
<circle cx="305" cy="132" r="48" fill="none" stroke="#C6538C" stroke-width="22" stroke-dasharray="53.712778243053954 247.8801165015662" stroke-dashoffset="-140.41100911418013" transform="rotate(-90 305 132)"/>
<circle cx="305" cy="132" r="48" fill="none" stroke="#E34C26" stroke-width="22" stroke-dasharray="51.82266912758217 249.77022561703797" stroke-dashoffset="-194.12378735723408" transform="rotate(-90 305 132)"/>
<circle cx="305" cy="132" r="48" fill="none" stroke="#F1E05A" stroke-width="22" stroke-dasharray="49.0528318062917 252.54006293832845" stroke-dashoffset="-245.94645648481625" transform="rotate(-90 305 132)"/>
<circle cx="305" cy="132" r="48" fill="none" stroke="#178600" stroke-width="22" stroke-dasharray="3.4085838733700182 298.18431087125015" stroke-dashoffset="-294.999288291108" transform="rotate(-90 305 132)"/>
<circle cx="305" cy="132" r="48" fill="none" stroke="#CC342D" stroke-width="22" stroke-dasharray="1.7565530182187916 299.8363417264014" stroke-dashoffset="-298.40787216447796" transform="rotate(-90 305 132)"/>
<circle cx="305" cy="132" r="48" fill="none" stroke="#3572A5" stroke-width="22" stroke-dasharray="1.428469561923381 300.16442518269673" stroke-dashoffset="-300.16442518269673" transform="rotate(-90 305 132)"/>
<circle cx="305" cy="132" r="36" fill="#0D1117"/>
<rect x="32" y="62" width="13" height="13" fill="#3178C6"/>
<text x="52" y="72" font-family="Arial, sans-serif" font-size="13" fill="#C9D1D9">TypeScript 46.6%</text>
<rect x="32" y="85" width="13" height="13" fill="#C6538C"/>
<text x="52" y="95" font-family="Arial, sans-serif" font-size="13" fill="#C9D1D9">SCSS 17.8%</text>
<rect x="32" y="108" width="13" height="13" fill="#E34C26"/>
<text x="52" y="118" font-family="Arial, sans-serif" font-size="13" fill="#C9D1D9">HTML 17.2%</text>
<rect x="32" y="131" width="13" height="13" fill="#F1E05A"/>
<text x="52" y="141" font-family="Arial, sans-serif" font-size="13" fill="#C9D1D9">JavaScript 16.3%</text>
<rect x="32" y="154" width="13" height="13" fill="#178600"/>
<text x="52" y="164" font-family="Arial, sans-serif" font-size="13" fill="#C9D1D9">C# 1.1%</text>
<rect x="32" y="177" width="13" height="13" fill="#CC342D"/>
<text x="52" y="187" font-family="Arial, sans-serif" font-size="13" fill="#C9D1D9">Ruby 0.6%</text>
<rect x="32" y="200" width="13" height="13" fill="#3572A5"/>
<text x="52" y="210" font-family="Arial, sans-serif" font-size="13" fill="#C9D1D9">Python 0.5%</text>
</svg>