<svg xmlns="http://www.w3.org/2000/svg" width="430" height="240" viewBox="0 0 430 240">
<rect width="100%" height="100%" rx="7" fill="#0D1117"/>
<text x="28" y="38" font-family="Arial, sans-serif" font-size="22" fill="#FF3B8D">Top Languages by Commit</text>
<circle cx="305" cy="132" r="48" fill="none" stroke="#3178C6" stroke-width="22" stroke-dasharray="137.39916896125945 164.1937257833607" stroke-dashoffset="0" transform="rotate(-90 305 132)"/>
<circle cx="305" cy="132" r="48" fill="none" stroke="#E34C26" stroke-width="22" stroke-dasharray="52.6288167291489 248.96407801547124" stroke-dashoffset="-137.39916896125945" transform="rotate(-90 305 132)"/>
<circle cx="305" cy="132" r="48" fill="none" stroke="#C6538C" stroke-width="22" stroke-dasharray="52.56062996594983 249.0322647786703" stroke-dashoffset="-190.02798569040834" transform="rotate(-90 305 132)"/>
<circle cx="305" cy="132" r="48" fill="none" stroke="#F1E05A" stroke-width="22" stroke-dasharray="48.13985481854346 253.45303992607668" stroke-dashoffset="-242.58861565635817" transform="rotate(-90 305 132)"/>
<circle cx="305" cy="132" r="48" fill="none" stroke="#CC342D" stroke-width="22" stroke-dasharray="6.1311264576497155 295.4617682869704" stroke-dashoffset="-290.72847047490166" transform="rotate(-90 305 132)"/>
<circle cx="305" cy="132" r="48" fill="none" stroke="#178600" stroke-width="22" stroke-dasharray="3.3354691664878438 298.2574255781323" stroke-dashoffset="-296.85959693255137" transform="rotate(-90 305 132)"/>
<circle cx="305" cy="132" r="48" fill="none" stroke="#3572A5" stroke-width="22" stroke-dasharray="1.3978286455809361 300.1950660990392" stroke-dashoffset="-300.1950660990392" transform="rotate(-90 305 132)"/>
<circle cx="305" cy="132" r="36" fill="#0D1117"/>
<rect x="32" y="62" width="13" height="13" fill="#3178C6"/>
<text x="52" y="72" font-family="Arial, sans-serif" font-size="13" fill="#C9D1D9">TypeScript 45.6%</text>
<rect x="32" y="85" width="13" height="13" fill="#E34C26"/>
<text x="52" y="95" font-family="Arial, sans-serif" font-size="13" fill="#C9D1D9">HTML 17.5%</text>
<rect x="32" y="108" width="13" height="13" fill="#C6538C"/>
<text x="52" y="118" font-family="Arial, sans-serif" font-size="13" fill="#C9D1D9">SCSS 17.4%</text>
<rect x="32" y="131" width="13" height="13" fill="#F1E05A"/>
<text x="52" y="141" font-family="Arial, sans-serif" font-size="13" fill="#C9D1D9">JavaScript 16.0%</text>
<rect x="32" y="154" width="13" height="13" fill="#CC342D"/>
<text x="52" y="164" font-family="Arial, sans-serif" font-size="13" fill="#C9D1D9">Ruby 2.0%</text>
<rect x="32" y="177" width="13" height="13" fill="#178600"/>
<text x="52" y="187" font-family="Arial, sans-serif" font-size="13" fill="#C9D1D9">C# 1.1%</text>
<rect x="32" y="200" width="13" height="13" fill="#3572A5"/>
<text x="52" y="210" font-family="Arial, sans-serif" font-size="13" fill="#C9D1D9">Python 0.5%</text>
</svg>